<svg width="24" height="32" version="1.1" id="Layer_1" xmlns="http://www.w3.org/2000/svg" xmlns:xlink="http://www.w3.org/1999/xlink" x="0px" y="0px"
	 viewBox="0 0 272.13 272.13" style="enable-background:new 0 0 272.13 272.13;" xml:space="preserve">
<style type="text/css">
	.st0{fill:#86A493;}
	.st1{fill:#B3DDF7;}
	.st2{opacity:0.43;fill:#FFFFFF;}
	.st3{opacity:0.25;fill:#020203;}
	.st4{opacity:0.65;fill:#FFFFFF;}
	.st5{opacity:0.33;fill:#FFFFFF;}
	.st6{opacity:0.32;fill:#FFFFFF;}
	.st7{fill:#FFFFFF;}
	.st8{opacity:0.29;fill:#1E1E1C;}
	.st9{fill:#020203;}
	.st10{fill:none;stroke:#020203;stroke-width:2;stroke-miterlimit:10;}
	.st11{fill:none;stroke:#020203;stroke-width:2;stroke-linecap:round;stroke-linejoin:round;stroke-miterlimit:10;}
	.st12{opacity:0.2;fill:#020203;}
	.st13{opacity:0.5;fill:#FFFFFF;}
	.st14{opacity:0.3;fill:#020203;}
	.st15{fill:#020203;stroke:#020203;stroke-width:2;stroke-miterlimit:10;}
</style>
<path id="Forest_Green" class="st0" d="M193.37,81.56l-1.23-5.99l-0.02,0.02c4.75-6.15,6.92-15.26,5.15-24.78
	c-2.89-15.54-15.15-26.3-27.38-24.03c-3.63,0.67-6.85,2.42-9.5,4.95l0,0.01c-4.87-4.09-10.81-6.06-16.74-4.96
	c-3.63,0.67-6.85,2.42-9.5,4.95l0,0.01c-4.87-4.09-10.81-6.06-16.74-4.96c-4.56,0.85-8.47,3.39-11.43,7.04
	c-5.21-5.42-12.06-8.22-18.93-7.04C75,28.86,58.6,44.99,69.01,79.57l0.01,0c-6.23,6.84-10.58,15.78-10.58,27.39
	c0,36.51,37.68,41.26,37.68,41.26s0,89.54,0,89.54c0,4.49,17.75,8.13,39.64,8.13s39.64-3.64,39.64-8.13c0,0,0-92.29,0-92.29
	c19.81-6.69,28.52-18.76,28.52-33.62C203.92,88.8,193.37,81.56,193.37,81.56z"/>
<g id="Diamond">
	<path id="Baby_Blue_1_" class="st1" d="M193.37,81.56l-1.23-5.99l-0.02,0.02c4.75-6.15,6.92-15.26,5.15-24.78
		c-2.89-15.54-15.15-26.3-27.38-24.03c-3.63,0.67-6.85,2.42-9.5,4.95l0,0.01c-4.87-4.09-10.81-6.06-16.74-4.96
		c-3.63,0.67-6.85,2.42-9.5,4.95l0,0.01c-4.87-4.09-10.81-6.06-16.74-4.96c-4.56,0.85-8.47,3.39-11.43,7.04
		c-5.21-5.42-12.06-8.22-18.93-7.04C75,28.86,58.6,44.99,69.01,79.57l0.01,0c-6.23,6.84-10.58,15.78-10.58,27.39
		c0,36.51,37.68,41.26,37.68,41.26s0,89.54,0,89.54c0,4.49,17.75,8.13,39.64,8.13s39.64-3.64,39.64-8.13c0,0,0-92.29,0-92.29
		c19.81-6.69,28.52-18.76,28.52-33.62C203.92,88.8,193.37,81.56,193.37,81.56z"/>
	<path class="st2" d="M144.61,230.01l30.92-22.93l0,31.72C175.53,238.8,174.48,230.01,144.61,230.01z"/>
	<polygon class="st3" points="144.61,230.01 175.54,165.39 175.53,207.07 	"/>
	<polygon class="st4" points="144.61,230.01 131.75,186.61 165.39,186.61 	"/>
	<polyline class="st5" points="131.75,186.61 131.75,158.47 159.46,142.5 175.54,158.42 175.54,165.39 165.39,186.61 	"/>
	<path class="st6" d="M144.61,230.01l-19.55-65.45l-20.56,68.8C104.5,233.36,121.48,227.15,144.61,230.01z"/>
	<polygon class="st7" points="131.75,158.47 131.75,186.61 120.8,150.79 	"/>
	<polygon class="st7" points="104.5,233.1 96.12,235.97 95.64,185.88 108.73,167.49 117.43,189.82 	"/>
	<polygon class="st4" points="117.43,190.08 125.06,164.55 120.8,150.79 108.73,167.74 	"/>
	<polygon class="st2" points="96.62,184.76 120.8,150.79 94.61,120.82 	"/>
	<path class="st7" d="M94.61,120.82l-27.14,12.65c0,0,9.09,12.24,27.98,14.64L94.61,120.82z"/>
	<path class="st8" d="M159.46,142.5l43.48-21.68c0,0,0.33,5.69-12.93,17.45c-2.79,2.47-10.81,4.91-14.6,7.19
		c-2.23,1.34,0.71,12.46,0.14,12.96L159.46,142.5z"/>
	<polygon class="st7" points="131.75,158.47 134.89,111.08 159.46,142.5 	"/>
	<polygon class="st5" points="120.8,150.79 134.89,111.08 131.75,158.47 	"/>
	<polygon class="st5" points="159.46,142.5 159.46,95.73 202.93,120.82 	"/>
	<polygon class="st3" points="134.89,111.08 159.46,95.73 159.46,142.5 	"/>
	<polygon class="st4" points="134.89,111.08 120.8,150.79 94.61,120.82 97.62,107.56 121.4,99.35 	"/>
	<polygon class="st7" points="97.62,107.56 94.61,120.82 59.96,94.07 	"/>
	<path class="st6" d="M69.09,135.31l25.52-14.48L59.96,94.07C59.96,94.07,53.1,119.76,69.09,135.31z"/>
	<path class="st7" d="M202.93,120.82c0,0,2.1-9.35,0-20.37c-1.24-6.5-4.15-13.09-9.56-18.89c-1.22-1.3-0.4-4.4-1.26-5.97
		c0,0-6.93,12.77-23.6,5.57l-9.06,14.56L202.93,120.82z"/>
	<path class="st8" d="M168.51,81.34c0,0-4.91-2.73-4.91-3.21c0-0.49-7.63,10.45-26.24,0c0,0-1.38-0.02-2.36,1.93
		c-2.31,4.57-6.57,13.77-15.34,14.91l10.36,3.56l29.43-2.8L168.51,81.34z"/>
	<path class="st7" d="M159.46,95.73l-20.92,13.07c0,0-4.02-9.36-8.51-10.27L159.46,95.73z"/>
	<path class="st5" d="M138.2,108.74l-3.3,2.33l-17.36-15.35l6.78,0.79C124.31,96.52,136.24,99.09,138.2,108.74z"/>
	<polygon class="st5" points="97.62,107.56 121.4,99.35 101.96,81.16 	"/>
	<polygon class="st4" points="59.96,94.07 97.62,107.56 101.96,81.16 	"/>
	<path class="st6" d="M59.96,94.07c0,0,7.25-21.5,36.31-30.99l5.7,18.08L59.96,94.07z"/>
	<path class="st7" d="M101.96,81.16l32.49,1.12c0,0-2.05,10.02-16.92,13.45L101.96,81.16z"/>
	<path class="st3" d="M96.26,63.08l5.7,18.08l8.36-7.63c0,0-4.21-7.4,2.71-15.32C113.03,58.21,106.63,58.24,96.26,63.08z"/>
	<path class="st5" d="M134.45,82.28l-32.49-1.12l8.36-7.63c0,0,2.55,6.82,8.61,6.76s13.31-5.72,15.95-9.74
		C134.89,70.55,137.46,77.05,134.45,82.28z"/>
	<path class="st7" d="M78.54,71.42l-2.35-8.83l0.91-5.97l-9.9,13.49c0,0-0.19,8.76,2.39,9.2L78.54,71.42z"/>
	<path class="st6" d="M68.9,42.37c-5.59,9.07-1.7,27.74-1.7,27.74l9.9-13.49l4.59-28.09C81.69,28.53,76.9,29.4,68.9,42.37z"/>
	<path class="st4" d="M81.69,28.53c9.36-4.58,16.9-0.43,16.9-0.43L77.1,56.62"/>
	<path class="st6" d="M78.8,71.25l18.83-9.41l-20.35-5.06C77.27,56.78,75.97,68.83,78.8,71.25z"/>
	<path class="st7" d="M98.59,28.09L84.59,46.68l28.3-1.2C112.89,45.48,110.95,33.2,98.59,28.09z"/>
	<polygon class="st8" points="84.59,46.68 77.1,56.62 98.07,61.84 	"/>
	<polygon class="st6" points="98.07,61.84 115.02,58.29 112.89,45.33 84.59,46.68 	"/>
	<path class="st6" d="M132.35,59.98l11.55-14.14c0,0,7.29,18.18-8.04,33.58l-0.48-9.13C135.38,70.29,136.66,63.45,132.35,59.98z"/>
	<path class="st7" d="M143.9,45.84l-11.73,14.27l1.97-28.89C134.14,31.22,143.87,40.35,143.9,45.84z"/>
	<path class="st4" d="M120.03,56.62l13.64-16.67l-1.45,20.34C132.22,60.28,129.7,54.96,120.03,56.62z"/>
	<path class="st6" d="M133.67,39.94l-23.6-9.43c0,0,9.77-8.68,24.07,0.7L133.67,39.94z"/>
	<polygon class="st7" points="120.34,56.62 133.67,39.94 112.24,43.98 115.02,58.29 	"/>
	<polygon class="st3" points="110.07,30.51 105.65,33.78 112.24,43.98 133.67,39.94 	"/>
	<path class="st3" d="M149.81,83.62l-4.11-27.18c0,0-1.26,14.94-7,20.28l-1.35,1.4C137.36,78.13,143.88,83.5,149.81,83.62z"/>
	<path class="st6" d="M149.81,83.62l-4.11-27.18l24.9,7.86C170.6,64.29,169.22,81.68,149.81,83.62z"/>
	<polygon class="st7" points="145.71,56.44 159.36,46.28 170.6,64.29 	"/>
	<path class="st4" d="M170.6,64.29l-11.25-18.01l-2.75-17.41C156.61,28.88,176.09,38.58,170.6,64.29z"/>
	<path class="st5" d="M145.71,56.44c0,0-2.35-19.94-11.57-24.7c0,0,5.28-5.95,14.42-5.47L145.71,56.44z"/>
	<polygon class="st3" points="159.36,46.28 156.61,28.88 148.56,26.27 145.71,56.44 	"/>
	<path class="st6" d="M181.18,83.24l-11.46-14.99l-6.11,9.88C163.6,78.13,166.76,84,181.18,83.24z"/>
	<path class="st3" d="M181.18,83.24l-11.46-14.99l28.23-10.72C197.94,57.53,198.76,76.45,181.18,83.24z"/>
	<path class="st7" d="M197.94,57.53l-15.05,5.72l3.87-31.81C186.76,31.44,199.41,41.78,197.94,57.53z"/>
	<polygon class="st5" points="169.71,68.25 186.76,31.44 182.89,63.25 	"/>
	<path class="st4" d="M160.19,30.82c0,0,10.61-10.03,26.56,0.62l-8.52,18.41L160.19,30.82z"/>
	<path class="st7" d="M169.71,68.25l8.52-18.41l-11.92-12.57C166.31,37.27,175.51,48.86,169.71,68.25z"/>
	<path class="st9" d="M144.39,65.88"/>
	<path class="st10" d="M133.26,32.87"/>
	<g>
		<g>
			<g>
				<g>
					<path class="st7" d="M214.06,55.07c-2.6,1-4.71,3.03-5.8,5.59c-1.1-2.55-3.19-4.58-5.79-5.59c2.6-1,4.69-3.04,5.79-5.59
						C209.35,52.04,211.45,54.07,214.06,55.07z"/>
				</g>
			</g>
		</g>
		<g>
			<g>
				<g>
					<path class="st7" d="M211.7,78.95c-1.54,0.6-2.79,1.8-3.44,3.31c-0.65-1.51-1.89-2.72-3.43-3.31c1.54-0.6,2.78-1.8,3.43-3.31
						C208.91,77.16,210.15,78.36,211.7,78.95z"/>
				</g>
			</g>
		</g>
		<g>
			<g>
				<g>
					<path class="st7" d="M192.78,67.44c-2.41,0.93-4.35,2.8-5.36,5.16c-1.02-2.36-2.95-4.23-5.35-5.16
						c2.4-0.93,4.34-2.81,5.35-5.16C188.43,64.64,190.37,66.51,192.78,67.44z"/>
				</g>
			</g>
		</g>
	</g>
</g>
<g id="Base">
	<line class="st11" x1="96.12" y1="237.75" x2="96.12" y2="148.22"/>
	<path class="st11" d="M175.4,237.75c0,0,0-92.29,0-92.29c19.81-6.69,28.52-18.76,28.52-33.62c0-23.04-10.55-30.28-10.55-30.28
		l-1.23-5.99"/>
</g>
<g id="Digits_00000076565238491094836160000001746575295543961517_">
	<path class="st12" d="M195.77,83.89c-1.39-1.63-2.4-2.33-2.4-2.33l-1.23-5.99c-3,3.9-7.05,6.61-11.79,7.49
		c-5.93,1.1-11.87-0.86-16.74-4.95c-2.66,2.53-5.87,4.27-9.5,4.95c-5.93,1.1-11.87-0.86-16.74-4.95c-0.74,0.71-1.53,1.35-2.36,1.93
		c-2.84,14.66-17.88,15.24-19.31,15.26c1.7-0.01,22.98,0.26,23.83,20.53l0.04,0.02c8.43-13.29,1.47-27.76,1.47-27.76
		c11.91,7.88,22,0,22,0C180.69,98.06,192.7,87.2,195.77,83.89z"/>
	<path class="st13" d="M132.35,59.98c-3.66-3.2-8.69-4.37-13.36-3.05c-1.98,0.56-3.73,1.29-4.96,1.74
		c-4.49,1.65-6.38,7.74-4.23,13.6c2.15,5.86,7.54,9.27,12.03,7.62s15.51-6.24,13.27-15.21C134.47,62.21,133.65,61.44,132.35,59.98
		L132.35,59.98z"/>
	<path class="st11" d="M160.38,31.73c2.66-2.53,5.87-4.27,9.5-4.95c12.23-2.27,24.49,8.48,27.38,24.03s-4.69,29.99-16.92,32.26
		c-5.93,1.1-11.87-0.86-16.74-4.95"/>
	<path class="st11" d="M134.14,31.73c2.66-2.53,5.87-4.27,9.5-4.95c12.23-2.27,24.49,8.48,27.38,24.03s-4.69,29.99-16.92,32.26
		c-5.93,1.1-11.87-0.86-16.74-4.95"/>
	<path class="st11" d="M105.96,33.82c2.96-3.65,6.88-6.19,11.43-7.04c12.23-2.27,24.49,8.48,27.38,24.03
		c2.27,12.22-1.93,23.77-9.77,29.25"/>
	<path class="st11" d="M115.02,58.29c0.06-2.44-0.14-4.95-0.61-7.48c-2.89-15.54-15.12-26.14-27.38-24.03
		C75,28.86,58.6,44.99,69.01,79.57"/>
	<path class="st11" d="M77.69,56.65c-2.07,5.25-1.38,10.41,0.85,14.77"/>
	<path class="st11" d="M135,69.56c0.45,2.12,0.6,4.62,0.39,7.57c-1.34,18.34-19.81,18.19-19.81,18.19s23.99-0.63,23.99,21.79"/>
	<path class="st11" d="M96.12,148.22c0,0-37.68-4.75-37.68-41.26s42.96-46.62,52.33-47.99c1.13-0.17,2.38-0.33,3.68-0.45"/>
	<path class="st11" d="M132.35,59.98c-3.66-3.2-8.69-4.37-13.36-3.05c-1.98,0.56-3.73,1.29-4.96,1.74
		c-4.49,1.65-6.38,7.74-4.23,13.6c2.15,5.86,7.54,9.27,12.03,7.62s15.51-6.24,13.27-15.21C134.47,62.21,133.65,61.44,132.35,59.98
		L132.35,59.98z"/>
</g>
<g id="Default_00000154413431316224358610000003648348638194582968_">
	<ellipse class="st14" cx="135.76" cy="237.75" rx="39.64" ry="8.13"/>
	<ellipse class="st15" cx="135.76" cy="237.75" rx="15.26" ry="3.27"/>
	<ellipse class="st10" cx="135.76" cy="237.75" rx="39.64" ry="8.13"/>
</g>
</svg>
